<?xml version="1.0" standalone="no"?>
<!DOCTYPE svg PUBLIC "-//W3C//DTD SVG 20010904//EN"
 "http://www.w3.org/TR/2001/REC-SVG-20010904/DTD/svg10.dtd">
<svg version="1.0" xmlns="http://www.w3.org/2000/svg"
 width="255.000000pt" height="192.000000pt" viewBox="0 0 255.000000 192.000000"
 preserveAspectRatio="xMidYMid meet">

<g transform="translate(0.000000,192.000000) scale(0.100000,-0.100000)"
fill="#000000" stroke="none">
<path d="M4 1540 c0 -52 1 -74 3 -47 2 26 2 68 0 95 -2 26 -3 4 -3 -48z"/>
<path d="M715 1273 c-151 -88 -268 -231 -310 -377 -27 -94 -18 -216 23 -299
78 -157 259 -259 511 -287 282 -31 661 82 910 273 70 53 166 150 209 210 33
47 33 47 9 47 -17 0 -38 -18 -76 -66 -99 -123 -306 -262 -471 -317 -138 -45
-235 -61 -375 -60 -212 1 -389 59 -500 164 -134 127 -159 308 -68 499 28 60
54 94 129 168 51 50 92 92 91 92 -1 0 -38 -21 -82 -47z"/>
<path d="M5 820 c0 -212 1 -298 2 -193 2 106 2 280 0 385 -1 106 -2 20 -2
-192z"/>
<path d="M970 1080 c0 -5 7 -10 15 -10 8 0 15 5 15 10 0 6 -7 10 -15 10 -8 0
-15 -4 -15 -10z"/>
<path d="M1650 985 c0 -63 4 -105 10 -105 6 0 10 42 10 105 0 63 -4 105 -10
105 -6 0 -10 -42 -10 -105z"/>
<path d="M772 1008 c-17 -17 -17 -191 1 -186 8 3 14 34 17 89 l5 84 38 3 c44
4 67 -11 67 -43 0 -44 -10 -55 -51 -55 -21 0 -39 -5 -39 -11 0 -6 21 -9 53 -7
l52 3 3 53 c2 31 -2 60 -9 68 -14 18 -120 19 -137 2z"/>
<path d="M970 950 c0 -56 3 -70 15 -70 12 0 15 14 15 70 0 56 -3 70 -15 70
-12 0 -15 -14 -15 -70z"/>
<path d="M1040 969 c0 -75 11 -89 70 -89 61 0 67 18 8 22 l-43 3 -3 58 c-2 42
-7 57 -17 57 -11 0 -15 -13 -15 -51z"/>
<path d="M1180 931 c0 -95 -3 -101 -56 -101 -16 0 -24 -6 -24 -16 0 -14 8 -16
42 -11 59 8 68 25 68 129 0 72 -3 88 -15 88 -12 0 -15 -17 -15 -89z"/>
<path d="M1250 972 c0 -27 7 -57 16 -70 13 -19 24 -22 85 -22 l69 0 0 70 c0
56 -3 70 -15 70 -12 0 -15 -13 -15 -60 l0 -60 -43 0 c-55 0 -67 13 -67 72 0
36 -4 48 -15 48 -11 0 -15 -12 -15 -48z"/>
<path d="M1472 1008 c-34 -34 -1 -68 68 -68 34 0 41 -3 38 -17 -2 -14 -15 -19
-61 -21 -78 -4 -72 -22 8 -22 53 0 66 3 75 19 10 21 4 51 -14 63 -6 4 -30 8
-54 8 -60 0 -50 24 11 28 26 2 47 7 47 13 0 13 -104 11 -118 -3z"/>
<path d="M1700 1011 c0 -6 17 -11 38 -13 l37 -3 3 -57 c2 -43 7 -58 17 -58 19
0 21 110 3 128 -14 14 -98 16 -98 3z"/>
</g>
</svg>
